<mxfile host="app.diagrams.net" modified="2022-06-19T13:48:11.493Z" agent="5.0 (Windows NT 10.0; Win64; x64) AppleWebKit/537.36 (KHTML, like Gecko) Chrome/100.0.4896.127 Safari/537.36" etag="RYaT3Et4OexJVbSPX868" version="20.0.1" type="github">
  <diagram id="77X3sbEaQUG4GDiAxrND" name="第 1 页">
    <mxGraphModel dx="1278" dy="491" grid="1" gridSize="10" guides="1" tooltips="1" connect="1" arrows="1" fold="1" page="1" pageScale="1" pageWidth="827" pageHeight="1169" math="0" shadow="0">
      <root>
        <mxCell id="0" />
        <mxCell id="1" parent="0" />
        <mxCell id="Jy56EpTqwdUdhTVjnXrr-3" value="客户端节点" style="shape=umlLifeline;perimeter=lifelinePerimeter;whiteSpace=wrap;html=1;container=1;collapsible=0;recursiveResize=0;outlineConnect=0;" vertex="1" parent="1">
          <mxGeometry x="150" y="80" width="100" height="360" as="geometry" />
        </mxCell>
        <mxCell id="Jy56EpTqwdUdhTVjnXrr-5" value="" style="html=1;points=[];perimeter=orthogonalPerimeter;" vertex="1" parent="Jy56EpTqwdUdhTVjnXrr-3">
          <mxGeometry x="45" y="90" width="10" height="240" as="geometry" />
        </mxCell>
        <mxCell id="Jy56EpTqwdUdhTVjnXrr-9" value="数据源数据结构信息查询" style="html=1;verticalAlign=bottom;endArrow=block;rounded=0;" edge="1" parent="Jy56EpTqwdUdhTVjnXrr-3" target="Jy56EpTqwdUdhTVjnXrr-4">
          <mxGeometry width="80" relative="1" as="geometry">
            <mxPoint x="50" y="90" as="sourcePoint" />
            <mxPoint x="130" y="90" as="targetPoint" />
          </mxGeometry>
        </mxCell>
        <mxCell id="Jy56EpTqwdUdhTVjnXrr-4" value="数据源信息管理节点" style="shape=umlLifeline;perimeter=lifelinePerimeter;whiteSpace=wrap;html=1;container=1;collapsible=0;recursiveResize=0;outlineConnect=0;" vertex="1" parent="1">
          <mxGeometry x="320" y="80" width="120" height="310" as="geometry" />
        </mxCell>
        <mxCell id="Jy56EpTqwdUdhTVjnXrr-8" value="" style="html=1;points=[];perimeter=orthogonalPerimeter;" vertex="1" parent="Jy56EpTqwdUdhTVjnXrr-4">
          <mxGeometry x="55" y="90" width="10" height="220" as="geometry" />
        </mxCell>
        <mxCell id="Jy56EpTqwdUdhTVjnXrr-10" value="连接信息查询" style="html=1;verticalAlign=bottom;endArrow=block;rounded=0;" edge="1" parent="Jy56EpTqwdUdhTVjnXrr-4" target="Jy56EpTqwdUdhTVjnXrr-14">
          <mxGeometry width="80" relative="1" as="geometry">
            <mxPoint x="60" y="110" as="sourcePoint" />
            <mxPoint x="140" y="110" as="targetPoint" />
          </mxGeometry>
        </mxCell>
        <mxCell id="Jy56EpTqwdUdhTVjnXrr-18" value="数据结构信息查询" style="html=1;verticalAlign=bottom;endArrow=block;rounded=0;" edge="1" parent="Jy56EpTqwdUdhTVjnXrr-4" target="Jy56EpTqwdUdhTVjnXrr-7">
          <mxGeometry width="80" relative="1" as="geometry">
            <mxPoint x="60" y="200" as="sourcePoint" />
            <mxPoint x="140" y="200" as="targetPoint" />
          </mxGeometry>
        </mxCell>
        <mxCell id="Jy56EpTqwdUdhTVjnXrr-7" value="数据存储节点" style="shape=umlLifeline;perimeter=lifelinePerimeter;whiteSpace=wrap;html=1;container=1;collapsible=0;recursiveResize=0;outlineConnect=0;" vertex="1" parent="1">
          <mxGeometry x="670" y="80" width="120" height="300" as="geometry" />
        </mxCell>
        <mxCell id="Jy56EpTqwdUdhTVjnXrr-17" value="" style="html=1;points=[];perimeter=orthogonalPerimeter;" vertex="1" parent="Jy56EpTqwdUdhTVjnXrr-7">
          <mxGeometry x="55" y="200" width="10" height="80" as="geometry" />
        </mxCell>
        <mxCell id="Jy56EpTqwdUdhTVjnXrr-14" value="数据源连接节点" style="shape=umlLifeline;perimeter=lifelinePerimeter;whiteSpace=wrap;html=1;container=1;collapsible=0;recursiveResize=0;outlineConnect=0;" vertex="1" parent="1">
          <mxGeometry x="496" y="80" width="120" height="300" as="geometry" />
        </mxCell>
        <mxCell id="Jy56EpTqwdUdhTVjnXrr-15" value="" style="html=1;points=[];perimeter=orthogonalPerimeter;" vertex="1" parent="Jy56EpTqwdUdhTVjnXrr-14">
          <mxGeometry x="55" y="110" width="10" height="50" as="geometry" />
        </mxCell>
        <mxCell id="Jy56EpTqwdUdhTVjnXrr-16" value="连接信息返回" style="html=1;verticalAlign=bottom;endArrow=open;dashed=1;endSize=8;rounded=0;" edge="1" parent="1" target="Jy56EpTqwdUdhTVjnXrr-4">
          <mxGeometry relative="1" as="geometry">
            <mxPoint x="550" y="240" as="sourcePoint" />
            <mxPoint x="470" y="240" as="targetPoint" />
          </mxGeometry>
        </mxCell>
        <mxCell id="Jy56EpTqwdUdhTVjnXrr-19" value="数据结构信息" style="html=1;verticalAlign=bottom;endArrow=open;dashed=1;endSize=8;rounded=0;" edge="1" parent="1" target="Jy56EpTqwdUdhTVjnXrr-4">
          <mxGeometry relative="1" as="geometry">
            <mxPoint x="730" y="360" as="sourcePoint" />
            <mxPoint x="650" y="360" as="targetPoint" />
          </mxGeometry>
        </mxCell>
        <mxCell id="Jy56EpTqwdUdhTVjnXrr-20" value="数据结构信息" style="html=1;verticalAlign=bottom;endArrow=open;dashed=1;endSize=8;rounded=0;" edge="1" parent="1" target="Jy56EpTqwdUdhTVjnXrr-3">
          <mxGeometry relative="1" as="geometry">
            <mxPoint x="380" y="390" as="sourcePoint" />
            <mxPoint x="300" y="390" as="targetPoint" />
          </mxGeometry>
        </mxCell>
        <mxCell id="Jy56EpTqwdUdhTVjnXrr-21" value="客户端节点" style="shape=umlLifeline;perimeter=lifelinePerimeter;whiteSpace=wrap;html=1;container=1;collapsible=0;recursiveResize=0;outlineConnect=0;" vertex="1" parent="1">
          <mxGeometry x="150" y="560" width="100" height="360" as="geometry" />
        </mxCell>
        <mxCell id="Jy56EpTqwdUdhTVjnXrr-22" value="" style="html=1;points=[];perimeter=orthogonalPerimeter;" vertex="1" parent="Jy56EpTqwdUdhTVjnXrr-21">
          <mxGeometry x="45" y="90" width="10" height="150" as="geometry" />
        </mxCell>
        <mxCell id="Jy56EpTqwdUdhTVjnXrr-23" value="数据源基本信息查询" style="html=1;verticalAlign=bottom;endArrow=block;rounded=0;" edge="1" parent="Jy56EpTqwdUdhTVjnXrr-21" target="Jy56EpTqwdUdhTVjnXrr-24">
          <mxGeometry width="80" relative="1" as="geometry">
            <mxPoint x="50" y="90" as="sourcePoint" />
            <mxPoint x="130" y="90" as="targetPoint" />
          </mxGeometry>
        </mxCell>
        <mxCell id="Jy56EpTqwdUdhTVjnXrr-24" value="数据源信息管理节点" style="shape=umlLifeline;perimeter=lifelinePerimeter;whiteSpace=wrap;html=1;container=1;collapsible=0;recursiveResize=0;outlineConnect=0;" vertex="1" parent="1">
          <mxGeometry x="320" y="560" width="120" height="310" as="geometry" />
        </mxCell>
        <mxCell id="Jy56EpTqwdUdhTVjnXrr-25" value="" style="html=1;points=[];perimeter=orthogonalPerimeter;" vertex="1" parent="Jy56EpTqwdUdhTVjnXrr-24">
          <mxGeometry x="55" y="90" width="10" height="130" as="geometry" />
        </mxCell>
        <mxCell id="Jy56EpTqwdUdhTVjnXrr-26" value="连接信息查询" style="html=1;verticalAlign=bottom;endArrow=block;rounded=0;" edge="1" parent="Jy56EpTqwdUdhTVjnXrr-24" target="Jy56EpTqwdUdhTVjnXrr-30">
          <mxGeometry width="80" relative="1" as="geometry">
            <mxPoint x="60" y="110" as="sourcePoint" />
            <mxPoint x="140" y="110" as="targetPoint" />
          </mxGeometry>
        </mxCell>
        <mxCell id="Jy56EpTqwdUdhTVjnXrr-30" value="数据源连接节点" style="shape=umlLifeline;perimeter=lifelinePerimeter;whiteSpace=wrap;html=1;container=1;collapsible=0;recursiveResize=0;outlineConnect=0;" vertex="1" parent="1">
          <mxGeometry x="496" y="560" width="120" height="300" as="geometry" />
        </mxCell>
        <mxCell id="Jy56EpTqwdUdhTVjnXrr-31" value="" style="html=1;points=[];perimeter=orthogonalPerimeter;" vertex="1" parent="Jy56EpTqwdUdhTVjnXrr-30">
          <mxGeometry x="55" y="110" width="10" height="50" as="geometry" />
        </mxCell>
        <mxCell id="Jy56EpTqwdUdhTVjnXrr-32" value="连接信息返回" style="html=1;verticalAlign=bottom;endArrow=open;dashed=1;endSize=8;rounded=0;" edge="1" parent="1" target="Jy56EpTqwdUdhTVjnXrr-24">
          <mxGeometry relative="1" as="geometry">
            <mxPoint x="550" y="720" as="sourcePoint" />
            <mxPoint x="470" y="720" as="targetPoint" />
          </mxGeometry>
        </mxCell>
        <mxCell id="Jy56EpTqwdUdhTVjnXrr-34" value="基本信息" style="html=1;verticalAlign=bottom;endArrow=open;dashed=1;endSize=8;rounded=0;" edge="1" parent="1">
          <mxGeometry relative="1" as="geometry">
            <mxPoint x="380" y="764" as="sourcePoint" />
            <mxPoint x="199.5" y="764" as="targetPoint" />
          </mxGeometry>
        </mxCell>
      </root>
    </mxGraphModel>
  </diagram>
</mxfile>
